# Blender 5.0.0
# www.blender.org
mtllib Brick_02_1hit.mtl
g Cube_Mesh
v 3.260657 1.055093 -1.000000
v 3.260657 1.172325 -0.900000
v 3.622952 1.055093 -0.900000
v 3.260657 -1.172325 -0.900000
v 3.260657 -1.055093 -1.000000
v 3.622952 -1.055093 -0.900000
v 3.622952 1.055093 0.900000
v 3.260657 1.172325 0.900000
v 3.260657 1.055093 1.000000
v 3.622952 -1.055093 0.900000
v 3.260657 -1.055093 1.000000
v 3.260657 -1.172325 0.900000
v -3.260657 1.055093 -1.000000
v -3.622952 1.055093 -0.900000
v -3.260657 1.172325 -0.900000
v -3.622952 -1.055093 -0.900000
v -3.260657 -1.055093 -1.000000
v -3.260657 -1.172325 -0.900000
v -3.622952 1.055093 0.900000
v -3.260657 1.055093 1.000000
v -3.260657 1.172325 0.900000
v -3.260657 -1.172325 0.900000
v -3.260657 -1.055093 1.000000
v -3.622952 -1.055093 0.900000
vn 0.1016 0.3141 -0.9439
vn 0.1141 0.9035 -0.4132
vn 0.4740 0.5714 -0.6699
vn 0.1141 -0.9035 -0.4132
vn 0.1016 -0.3141 -0.9439
vn 0.4740 -0.5714 -0.6699
vn 0.4740 0.5714 0.6699
vn 0.1141 0.9035 0.4132
vn 0.1016 0.3141 0.9439
vn 0.4740 -0.5714 0.6699
vn 0.1016 -0.3141 0.9439
vn 0.1141 -0.9035 0.4132
vn -0.1016 0.3141 -0.9439
vn -0.4740 0.5714 -0.6699
vn -0.1141 0.9035 -0.4132
vn -0.4740 -0.5714 -0.6699
vn -0.1016 -0.3141 -0.9439
vn -0.1141 -0.9035 -0.4132
vn -0.4740 0.5714 0.6699
vn -0.1016 0.3141 0.9439
vn -0.1141 0.9035 0.4132
vn -0.1141 -0.9035 0.4132
vn -0.1016 -0.3141 0.9439
vn -0.4740 -0.5714 0.6699
vt 0.612500 0.487500
vt 0.631250 0.500000
vt 0.612500 0.509375
vt 0.362500 0.512500
vt 0.375000 0.493750
vt 0.384375 0.512500
vt 0.612500 0.740625
vt 0.631250 0.750000
vt 0.612500 0.762500
vt 0.384375 0.737500
vt 0.375000 0.756250
vt 0.362500 0.737500
vt 0.612500 0.259375
vt 0.612500 0.237500
vt 0.625000 0.245833
vt 0.125000 0.512500
vt 0.137500 0.500000
vt 0.137500 0.512500
vt 0.612500 0.012500
vt 0.612500 0.000000
vt 0.625000 0.012500
vt 0.137500 0.737500
vt 0.137500 0.750000
vt 0.125000 0.737500
vt 0.387500 0.012500
vt 0.387500 0.000000
vt 0.387500 0.262500
vt 0.625000 0.987500
vt 0.862500 0.512500
vt 0.387500 0.987500
vt 0.387500 0.237500
vt 0.612500 0.987500
vt 0.862500 0.737500
s 1
g off
g Cube_Paddle
usemtl Paddle
f 1/1/1 2/2/2 3/3/3
f 4/4/4 5/5/5 6/6/6
f 7/7/7 8/8/8 9/9/9
f 10/10/10 11/11/11 12/12/12
f 13/13/13 14/14/14 15/15/15
f 16/16/16 17/17/17 18/18/18
f 19/19/19 20/20/20 21/21/21
f 22/22/22 23/23/23 24/24/24
f 22/22/22 16/16/16 18/18/18
f 18/18/18 5/5/5 4/4/4
f 6/6/6 1/1/1 3/3/3
f 20/20/20 24/25/24 23/26/23
f 11/11/11 7/7/7 9/9/9
f 17/27/17 14/14/14 13/13/13
f 21/28/21 9/9/9 8/8/8
f 8/8/8 3/3/3 2/2/2
f 12/12/12 23/23/23 22/22/22
f 15/15/15 19/19/19 21/21/21
f 2/2/2 13/13/13 15/15/15
f 4/4/4 10/10/10 12/12/12
f 13/13/13 5/5/5 17/27/17
f 3/3/3 10/10/10 6/6/6
f 15/29/15 8/8/8 2/2/2
f 4/4/4 22/22/22 18/18/18
f 9/9/9 23/30/23 11/11/11
f 19/19/19 16/31/16 24/25/24
f 22/22/22 24/24/24 16/16/16
f 18/18/18 17/17/17 5/5/5
f 6/6/6 5/5/5 1/1/1
f 20/20/20 19/19/19 24/25/24
f 11/11/11 10/10/10 7/7/7
f 17/27/17 16/31/16 14/14/14
f 21/28/21 20/32/20 9/9/9
f 8/8/8 7/7/7 3/3/3
f 12/12/12 11/11/11 23/23/23
f 15/15/15 14/14/14 19/19/19
f 2/2/2 1/1/1 13/13/13
f 4/4/4 6/6/6 10/10/10
f 13/13/13 1/1/1 5/5/5
f 3/3/3 7/7/7 10/10/10
f 15/29/15 21/33/21 8/8/8
f 4/4/4 12/12/12 22/22/22
f 9/9/9 20/32/20 23/30/23
f 19/19/19 14/14/14 16/31/16
