# Blender 5.0.0
# www.blender.org
mtllib Shield.mtl
g Cylinder.011_Mesh
v -3.618057 1.860211 -3.849089
v -3.652738 1.860254 -3.849089
v -3.618349 1.627603 -3.715563
v -3.653030 1.627646 -3.715563
v -3.618349 1.627603 -3.448511
v -3.653030 1.627646 -3.448511
v -3.618057 1.860211 -3.314985
v -3.652738 1.860254 -3.314985
v -3.617765 2.092819 -3.448511
v -3.652447 2.092862 -3.448511
v -3.617765 2.092819 -3.715563
v -3.652447 2.092862 -3.715563
v -3.619787 1.353371 -2.086850
v -3.654468 1.353415 -2.086850
v -3.620078 1.120763 -1.953323
v -3.654760 1.120807 -1.953323
v -3.620078 1.120763 -1.686271
v -3.654759 1.120807 -1.686271
v -3.619786 1.353371 -1.552745
v -3.654468 1.353415 -1.552745
v -3.619495 1.585979 -1.686271
v -3.654176 1.586023 -1.686271
v -3.619495 1.585979 -1.953323
v -3.654176 1.586023 -1.953323
v -3.619787 1.856286 -2.086850
v -3.654468 1.856330 -2.086850
v -3.620078 1.623678 -1.953323
v -3.654760 1.623722 -1.953323
v -3.620078 1.623678 -1.686271
v -3.654760 1.623722 -1.686271
v -3.619787 1.856286 -1.552745
v -3.654468 1.856330 -1.552745
v -3.619495 2.088894 -1.686271
v -3.654176 2.088938 -1.686271
v -3.619495 2.088894 -1.953323
v -3.654176 2.088938 -1.953323
v -3.619787 1.611746 -2.518603
v -3.654468 1.611789 -2.518603
v -3.620079 1.379138 -2.385077
v -3.654760 1.379181 -2.385077
v -3.620079 1.379138 -2.118024
v -3.654760 1.379181 -2.118024
v -3.619787 1.611746 -1.984498
v -3.654468 1.611789 -1.984498
v -3.619495 1.844354 -2.118024
v -3.654176 1.844397 -2.118024
v -3.619495 1.844354 -2.385077
v -3.654176 1.844397 -2.385077
v -3.619787 2.128173 -2.518603
v -3.654469 2.128217 -2.518603
v -3.620079 1.895565 -2.385077
v -3.654760 1.895609 -2.385077
v -3.620079 1.895565 -2.118024
v -3.654760 1.895609 -2.118024
v -3.619787 2.128173 -1.984498
v -3.654468 2.128217 -1.984498
v -3.619495 2.360781 -2.118024
v -3.654176 2.360825 -2.118024
v -3.619495 2.360781 -2.385077
v -3.654177 2.360825 -2.385077
v -3.618767 1.859062 -2.954535
v -3.653449 1.859105 -2.954535
v -3.619059 1.626454 -2.821009
v -3.653740 1.626497 -2.821009
v -3.619059 1.626454 -2.553957
v -3.653740 1.626497 -2.553957
v -3.618767 1.859062 -2.420431
v -3.653448 1.859105 -2.420431
v -3.618475 2.091670 -2.553957
v -3.653157 2.091713 -2.553957
v -3.618475 2.091670 -2.821009
v -3.653157 2.091713 -2.821009
v -3.619787 1.593846 -1.641212
v -3.654468 1.593890 -1.641212
v -3.620078 1.361238 -1.507686
v -3.654760 1.361282 -1.507686
v -3.620078 1.361238 -1.240634
v -3.654760 1.361282 -1.240634
v -3.619787 1.593846 -1.107108
v -3.654468 1.593890 -1.107108
v -3.619495 1.826454 -1.240634
v -3.654176 1.826498 -1.240634
v -3.619495 1.826454 -1.507686
v -3.654176 1.826498 -1.507686
v -3.618211 1.367909 -2.959480
v -3.652893 1.367953 -2.959480
v -3.618503 1.135301 -2.825954
v -3.653184 1.135345 -2.825954
v -3.618503 1.135301 -2.558902
v -3.653184 1.135345 -2.558902
v -3.618211 1.367909 -2.425375
v -3.652893 1.367953 -2.425375
v -3.617919 1.600517 -2.558902
v -3.652601 1.600560 -2.558902
v -3.617919 1.600517 -2.825954
v -3.652601 1.600560 -2.825954
v -3.618767 2.367541 -2.961981
v -3.653449 2.367584 -2.961981
v -3.619059 2.134933 -2.828455
v -3.653740 2.134976 -2.828455
v -3.619059 2.134933 -2.561403
v -3.653740 2.134977 -2.561403
v -3.618767 2.367541 -2.427877
v -3.653448 2.367584 -2.427877
v -3.618475 2.600149 -2.561403
v -3.653157 2.600192 -2.561403
v -3.618475 2.600149 -2.828455
v -3.653157 2.600192 -2.828455
v -3.618057 2.114204 -3.408795
v -3.652739 2.114247 -3.408795
v -3.618349 1.881596 -3.275269
v -3.653030 1.881639 -3.275269
v -3.618349 1.881596 -3.008217
v -3.653030 1.881639 -3.008217
v -3.618057 2.114204 -2.874691
v -3.652738 2.114247 -2.874691
v -3.617765 2.346812 -3.008217
v -3.652447 2.346855 -3.008217
v -3.617765 2.346812 -3.275269
v -3.652447 2.346855 -3.275269
v -3.618057 1.603858 -3.408795
v -3.652738 1.603902 -3.408795
v -3.618349 1.371251 -3.275269
v -3.653030 1.371294 -3.275269
v -3.618348 1.371251 -3.008217
v -3.653030 1.371294 -3.008217
v -3.618057 1.603858 -2.874691
v -3.652738 1.603902 -2.874691
v -3.617765 1.836466 -3.008217
v -3.652446 1.836510 -3.008217
v -3.617765 1.836466 -3.275269
v -3.652446 1.836510 -3.275269
vn -0.0006 -0.4978 -0.8673
vn -0.0013 -1.0000 -0.0000
vn -0.0006 -0.4978 0.8673
vn 0.0006 0.4978 0.8673
vn -1.0000 0.0013 -0.0000
vn 0.0013 1.0000 -0.0000
vn 0.0006 0.4978 -0.8673
vn 1.0000 -0.0013 -0.0000
vt 1.000000 1.000000
vt 0.833333 0.500000
vt 1.000000 0.500000
vt 0.833333 1.000000
vt 0.666667 0.500000
vt 0.666667 1.000000
vt 0.500000 0.500000
vt 0.500000 1.000000
vt 0.333333 0.500000
vt 0.250000 0.490000
vt 0.042154 0.130000
vt 0.457846 0.130000
vt 0.333333 1.000000
vt 0.166667 0.500000
vt 0.166667 1.000000
vt -0.000000 0.500000
vt 0.957846 0.370000
vt 0.750000 0.010000
vt 0.542154 0.370000
vt 0.457846 0.370000
vt 0.042154 0.370000
vt 0.250000 0.010000
vt -0.000000 1.000000
vt 0.750000 0.490000
vt 0.957846 0.130000
vt 0.542154 0.130000
s 1
g off
f 2/1/1 1/3/1 3/2/1
s 2
f 4/4/2 3/2/2 5/5/2
s 1
f 6/6/3 5/5/3 7/7/3
s 2
f 8/8/4 7/7/4 9/9/4
s 4
f 2/10/5 6/12/5 10/11/5
s 1
f 10/13/6 9/9/6 11/14/6
s 2
f 12/15/7 11/14/7 1/16/7
s 4
f 3/17/8 11/19/8 7/18/8
s 1
f 14/1/1 13/3/1 15/2/1
s 2
f 16/4/2 15/2/2 17/5/2
s 1
f 18/6/3 17/5/3 19/7/3
s 2
f 20/8/4 19/7/4 21/9/4
s 4
f 14/10/5 18/12/5 22/11/5
s 1
f 22/13/6 21/9/6 23/14/6
s 2
f 24/15/7 23/14/7 13/16/7
s 4
f 15/17/8 23/19/8 19/18/8
s 1
f 26/1/1 25/3/1 27/2/1
s 2
f 28/4/2 27/2/2 29/5/2
s 1
f 30/6/3 29/5/3 31/7/3
s 2
f 32/8/4 31/7/4 33/9/4
s 4
f 26/10/5 30/12/5 34/11/5
s 1
f 34/13/6 33/9/6 35/14/6
s 2
f 36/15/7 35/14/7 25/16/7
s 4
f 27/17/8 35/19/8 31/18/8
s 1
f 38/1/1 37/3/1 39/2/1
s 2
f 40/4/2 39/2/2 41/5/2
s 1
f 42/6/3 41/5/3 43/7/3
s 2
f 44/8/4 43/7/4 45/9/4
s 4
f 38/10/5 42/12/5 46/11/5
s 1
f 46/13/6 45/9/6 47/14/6
s 2
f 48/15/7 47/14/7 37/16/7
s 4
f 39/17/8 47/19/8 43/18/8
s 1
f 50/1/1 49/3/1 51/2/1
s 2
f 52/4/2 51/2/2 53/5/2
s 1
f 54/6/3 53/5/3 55/7/3
s 2
f 56/8/4 55/7/4 57/9/4
s 4
f 50/10/5 54/12/5 58/11/5
s 1
f 58/13/6 57/9/6 59/14/6
s 2
f 60/15/7 59/14/7 49/16/7
s 4
f 51/17/8 59/19/8 55/18/8
s 1
f 62/1/1 61/3/1 63/2/1
s 2
f 64/4/2 63/2/2 65/5/2
s 1
f 66/6/3 65/5/3 67/7/3
s 2
f 68/8/4 67/7/4 69/9/4
s 4
f 62/10/5 66/12/5 70/11/5
s 1
f 70/13/6 69/9/6 71/14/6
s 2
f 72/15/7 71/14/7 61/16/7
s 4
f 63/17/8 71/19/8 67/18/8
s 1
f 74/1/1 73/3/1 75/2/1
s 2
f 76/4/2 75/2/2 77/5/2
s 1
f 78/6/3 77/5/3 79/7/3
s 2
f 80/8/4 79/7/4 81/9/4
s 4
f 74/10/5 78/12/5 82/11/5
s 1
f 82/13/6 81/9/6 83/14/6
s 2
f 84/15/7 83/14/7 73/16/7
s 4
f 75/17/8 83/19/8 79/18/8
s 1
f 86/1/1 85/3/1 87/2/1
s 2
f 88/4/2 87/2/2 89/5/2
s 1
f 90/6/3 89/5/3 91/7/3
s 2
f 92/8/4 91/7/4 93/9/4
s 4
f 86/10/5 90/12/5 94/11/5
s 1
f 94/13/6 93/9/6 95/14/6
s 2
f 96/15/7 95/14/7 85/16/7
s 4
f 87/17/8 95/19/8 91/18/8
s 1
f 98/1/1 97/3/1 99/2/1
s 2
f 100/4/2 99/2/2 101/5/2
s 1
f 102/6/3 101/5/3 103/7/3
s 2
f 104/8/4 103/7/4 105/9/4
s 4
f 98/10/5 102/12/5 106/11/5
s 1
f 106/13/6 105/9/6 107/14/6
s 2
f 108/15/7 107/14/7 97/16/7
s 4
f 99/17/8 107/19/8 103/18/8
s 1
f 110/1/1 109/3/1 111/2/1
s 2
f 112/4/2 111/2/2 113/5/2
s 1
f 114/6/3 113/5/3 115/7/3
s 2
f 116/8/4 115/7/4 117/9/4
s 4
f 110/10/5 114/12/5 118/11/5
s 1
f 118/13/6 117/9/6 119/14/6
s 2
f 120/15/7 119/14/7 109/16/7
s 4
f 111/17/8 119/19/8 115/18/8
s 1
f 122/1/1 121/3/1 123/2/1
s 2
f 124/4/2 123/2/2 125/5/2
s 1
f 126/6/3 125/5/3 127/7/3
s 2
f 128/8/4 127/7/4 129/9/4
s 4
f 122/10/5 126/12/5 130/11/5
s 1
f 130/13/6 129/9/6 131/14/6
s 2
f 132/15/7 131/14/7 121/16/7
s 4
f 123/17/8 131/19/8 127/18/8
s 1
f 2/1/1 3/2/1 4/4/1
s 2
f 4/4/2 5/5/2 6/6/2
s 1
f 6/6/3 7/7/3 8/8/3
s 2
f 8/8/4 9/9/4 10/13/4
s 4
f 6/12/5 2/10/5 4/20/5
f 2/10/5 10/11/5 12/21/5
f 10/11/5 6/12/5 8/22/5
s 1
f 10/13/6 11/14/6 12/15/6
s 2
f 12/15/7 1/16/7 2/23/7
s 4
f 11/19/8 3/17/8 1/24/8
f 3/17/8 7/18/8 5/25/8
f 7/18/8 11/19/8 9/26/8
s 1
f 14/1/1 15/2/1 16/4/1
s 2
f 16/4/2 17/5/2 18/6/2
s 1
f 18/6/3 19/7/3 20/8/3
s 2
f 20/8/4 21/9/4 22/13/4
s 4
f 18/12/5 14/10/5 16/20/5
f 14/10/5 22/11/5 24/21/5
f 22/11/5 18/12/5 20/22/5
s 1
f 22/13/6 23/14/6 24/15/6
s 2
f 24/15/7 13/16/7 14/23/7
s 4
f 23/19/8 15/17/8 13/24/8
f 15/17/8 19/18/8 17/25/8
f 19/18/8 23/19/8 21/26/8
s 1
f 26/1/1 27/2/1 28/4/1
s 2
f 28/4/2 29/5/2 30/6/2
s 1
f 30/6/3 31/7/3 32/8/3
s 2
f 32/8/4 33/9/4 34/13/4
s 4
f 30/12/5 26/10/5 28/20/5
f 26/10/5 34/11/5 36/21/5
f 34/11/5 30/12/5 32/22/5
s 1
f 34/13/6 35/14/6 36/15/6
s 2
f 36/15/7 25/16/7 26/23/7
s 4
f 35/19/8 27/17/8 25/24/8
f 27/17/8 31/18/8 29/25/8
f 31/18/8 35/19/8 33/26/8
s 1
f 38/1/1 39/2/1 40/4/1
s 2
f 40/4/2 41/5/2 42/6/2
s 1
f 42/6/3 43/7/3 44/8/3
s 2
f 44/8/4 45/9/4 46/13/4
s 4
f 42/12/5 38/10/5 40/20/5
f 38/10/5 46/11/5 48/21/5
f 46/11/5 42/12/5 44/22/5
s 1
f 46/13/6 47/14/6 48/15/6
s 2
f 48/15/7 37/16/7 38/23/7
s 4
f 47/19/8 39/17/8 37/24/8
f 39/17/8 43/18/8 41/25/8
f 43/18/8 47/19/8 45/26/8
s 1
f 50/1/1 51/2/1 52/4/1
s 2
f 52/4/2 53/5/2 54/6/2
s 1
f 54/6/3 55/7/3 56/8/3
s 2
f 56/8/4 57/9/4 58/13/4
s 4
f 54/12/5 50/10/5 52/20/5
f 50/10/5 58/11/5 60/21/5
f 58/11/5 54/12/5 56/22/5
s 1
f 58/13/6 59/14/6 60/15/6
s 2
f 60/15/7 49/16/7 50/23/7
s 4
f 59/19/8 51/17/8 49/24/8
f 51/17/8 55/18/8 53/25/8
f 55/18/8 59/19/8 57/26/8
s 1
f 62/1/1 63/2/1 64/4/1
s 2
f 64/4/2 65/5/2 66/6/2
s 1
f 66/6/3 67/7/3 68/8/3
s 2
f 68/8/4 69/9/4 70/13/4
s 4
f 66/12/5 62/10/5 64/20/5
f 62/10/5 70/11/5 72/21/5
f 70/11/5 66/12/5 68/22/5
s 1
f 70/13/6 71/14/6 72/15/6
s 2
f 72/15/7 61/16/7 62/23/7
s 4
f 71/19/8 63/17/8 61/24/8
f 63/17/8 67/18/8 65/25/8
f 67/18/8 71/19/8 69/26/8
s 1
f 74/1/1 75/2/1 76/4/1
s 2
f 76/4/2 77/5/2 78/6/2
s 1
f 78/6/3 79/7/3 80/8/3
s 2
f 80/8/4 81/9/4 82/13/4
s 4
f 78/12/5 74/10/5 76/20/5
f 74/10/5 82/11/5 84/21/5
f 82/11/5 78/12/5 80/22/5
s 1
f 82/13/6 83/14/6 84/15/6
s 2
f 84/15/7 73/16/7 74/23/7
s 4
f 83/19/8 75/17/8 73/24/8
f 75/17/8 79/18/8 77/25/8
f 79/18/8 83/19/8 81/26/8
s 1
f 86/1/1 87/2/1 88/4/1
s 2
f 88/4/2 89/5/2 90/6/2
s 1
f 90/6/3 91/7/3 92/8/3
s 2
f 92/8/4 93/9/4 94/13/4
s 4
f 90/12/5 86/10/5 88/20/5
f 86/10/5 94/11/5 96/21/5
f 94/11/5 90/12/5 92/22/5
s 1
f 94/13/6 95/14/6 96/15/6
s 2
f 96/15/7 85/16/7 86/23/7
s 4
f 95/19/8 87/17/8 85/24/8
f 87/17/8 91/18/8 89/25/8
f 91/18/8 95/19/8 93/26/8
s 1
f 98/1/1 99/2/1 100/4/1
s 2
f 100/4/2 101/5/2 102/6/2
s 1
f 102/6/3 103/7/3 104/8/3
s 2
f 104/8/4 105/9/4 106/13/4
s 4
f 102/12/5 98/10/5 100/20/5
f 98/10/5 106/11/5 108/21/5
f 106/11/5 102/12/5 104/22/5
s 1
f 106/13/6 107/14/6 108/15/6
s 2
f 108/15/7 97/16/7 98/23/7
s 4
f 107/19/8 99/17/8 97/24/8
f 99/17/8 103/18/8 101/25/8
f 103/18/8 107/19/8 105/26/8
s 1
f 110/1/1 111/2/1 112/4/1
s 2
f 112/4/2 113/5/2 114/6/2
s 1
f 114/6/3 115/7/3 116/8/3
s 2
f 116/8/4 117/9/4 118/13/4
s 4
f 114/12/5 110/10/5 112/20/5
f 110/10/5 118/11/5 120/21/5
f 118/11/5 114/12/5 116/22/5
s 1
f 118/13/6 119/14/6 120/15/6
s 2
f 120/15/7 109/16/7 110/23/7
s 4
f 119/19/8 111/17/8 109/24/8
f 111/17/8 115/18/8 113/25/8
f 115/18/8 119/19/8 117/26/8
s 1
f 122/1/1 123/2/1 124/4/1
s 2
f 124/4/2 125/5/2 126/6/2
s 1
f 126/6/3 127/7/3 128/8/3
s 2
f 128/8/4 129/9/4 130/13/4
s 4
f 126/12/5 122/10/5 124/20/5
f 122/10/5 130/11/5 132/21/5
f 130/11/5 126/12/5 128/22/5
s 1
f 130/13/6 131/14/6 132/15/6
s 2
f 132/15/7 121/16/7 122/23/7
s 4
f 131/19/8 123/17/8 121/24/8
f 123/17/8 127/18/8 125/25/8
f 127/18/8 131/19/8 129/26/8
